<svg xmlns="http://www.w3.org/2000/svg" xmlns:xlink="http://www.w3.org/1999/xlink" width="500" zoomAndPan="magnify" viewBox="0 0 375 374.999991" height="500" preserveAspectRatio="xMidYMid meet" version="1.0"><defs><g/><clipPath id="id1"><path d="M 56.113281 178.230469 L 318.613281 178.230469 L 318.613281 211.980469 L 56.113281 211.980469 Z M 56.113281 178.230469 " clip-rule="nonzero"/></clipPath></defs><g fill="#a2077b" fill-opacity="1"><g transform="translate(99.887672, 257.877844)"><g><path d="M 52.539062 -70.996094 L 87.753906 -159.886719 L 122.683594 -70.996094 Z M 172.378906 0 L 87.753906 -206.457031 L 2.839844 0 L 24.421875 0 L 45.152344 -52.539062 L 130.066406 -52.539062 L 150.796875 0 Z M 172.378906 0 "/></g></g></g><g clip-path="url(#id1)"><path fill="#000000" d="M 56.140625 178.230469 L 318.589844 178.230469 L 318.589844 211.980469 L 56.140625 211.980469 L 56.140625 178.230469 " fill-opacity="1" fill-rule="nonzero"/></g><g fill="#ffffff" fill-opacity="1"><g transform="translate(66.459511, 200.446232)"><g><path d="M 0.5 0 L 0.5 -0.125 L 0.671875 -0.125 C 1.378906 -0.125 1.734375 -0.4375 1.734375 -1.0625 L 1.734375 -8.28125 C 1.734375 -8.875 1.378906 -9.171875 0.671875 -9.171875 L 0.5 -9.171875 L 0.5 -9.296875 L 7.0625 -9.296875 L 7.140625 -7.03125 L 7.015625 -7.03125 L 6.984375 -7.453125 C 6.953125 -8.109375 6.800781 -8.554688 6.53125 -8.796875 C 6.257812 -9.046875 5.796875 -9.171875 5.140625 -9.171875 L 3.046875 -9.171875 L 3.046875 -4.640625 L 6.3125 -4.640625 L 6.3125 -4.515625 L 3.046875 -4.515625 L 3.046875 -1.0625 C 3.046875 -0.4375 3.40625 -0.125 4.125 -0.125 L 4.28125 -0.125 L 4.28125 0 Z M 0.5 0 "/></g></g></g><g fill="#ffffff" fill-opacity="1"><g transform="translate(79.03703, 200.446232)"><g><path d="M 0.5 0 L 0.5 -0.125 L 0.671875 -0.125 C 1.378906 -0.125 1.734375 -0.4375 1.734375 -1.0625 L 1.734375 -8.28125 C 1.734375 -8.875 1.378906 -9.171875 0.671875 -9.171875 L 0.5 -9.171875 L 0.5 -9.296875 L 4 -9.296875 C 5.125 -9.296875 5.960938 -9.085938 6.515625 -8.671875 C 7.066406 -8.253906 7.34375 -7.65625 7.34375 -6.875 C 7.34375 -6.351562 7.238281 -5.929688 7.03125 -5.609375 C 6.832031 -5.296875 6.570312 -5.046875 6.25 -4.859375 C 5.9375 -4.679688 5.613281 -4.539062 5.28125 -4.4375 L 7.109375 -1.578125 C 7.472656 -1.023438 7.757812 -0.644531 7.96875 -0.4375 C 8.175781 -0.226562 8.382812 -0.125 8.59375 -0.125 L 8.625 -0.125 L 8.625 0 L 8.4375 0 C 8.03125 0 7.691406 -0.015625 7.421875 -0.046875 C 7.160156 -0.078125 6.941406 -0.128906 6.765625 -0.203125 C 6.597656 -0.285156 6.445312 -0.398438 6.3125 -0.546875 C 6.175781 -0.703125 6.03125 -0.898438 5.875 -1.140625 L 3.875 -4.34375 L 3.046875 -4.34375 L 3.046875 -1.0625 C 3.046875 -0.4375 3.40625 -0.125 4.125 -0.125 L 4.28125 -0.125 L 4.28125 0 Z M 3.046875 -4.46875 L 3.96875 -4.46875 C 4.6875 -4.46875 5.195312 -4.644531 5.5 -5 C 5.800781 -5.351562 5.953125 -5.945312 5.953125 -6.78125 C 5.953125 -7.632812 5.796875 -8.242188 5.484375 -8.609375 C 5.171875 -8.984375 4.65625 -9.171875 3.9375 -9.171875 L 3.046875 -9.171875 Z M 3.046875 -4.46875 "/></g></g></g><g fill="#ffffff" fill-opacity="1"><g transform="translate(92.474608, 200.446232)"><g><path d="M 4.828125 0.125 C 3.910156 0.125 3.144531 -0.0703125 2.53125 -0.46875 C 1.925781 -0.863281 1.472656 -1.421875 1.171875 -2.140625 C 0.878906 -2.867188 0.734375 -3.710938 0.734375 -4.671875 C 0.734375 -5.640625 0.878906 -6.476562 1.171875 -7.1875 C 1.472656 -7.90625 1.929688 -8.460938 2.546875 -8.859375 C 3.160156 -9.253906 3.925781 -9.453125 4.84375 -9.453125 C 5.71875 -9.453125 6.457031 -9.253906 7.0625 -8.859375 C 7.664062 -8.460938 8.125 -7.90625 8.4375 -7.1875 C 8.757812 -6.46875 8.921875 -5.628906 8.921875 -4.671875 C 8.921875 -3.703125 8.757812 -2.859375 8.4375 -2.140625 C 8.125 -1.421875 7.664062 -0.863281 7.0625 -0.46875 C 6.457031 -0.0703125 5.710938 0.125 4.828125 0.125 Z M 4.828125 0 C 5.765625 0 6.441406 -0.367188 6.859375 -1.109375 C 7.273438 -1.847656 7.484375 -3.035156 7.484375 -4.671875 C 7.484375 -6.296875 7.273438 -7.472656 6.859375 -8.203125 C 6.441406 -8.941406 5.769531 -9.3125 4.84375 -9.3125 C 3.914062 -9.3125 3.238281 -8.941406 2.8125 -8.203125 C 2.382812 -7.472656 2.171875 -6.296875 2.171875 -4.671875 C 2.171875 -3.035156 2.378906 -1.847656 2.796875 -1.109375 C 3.222656 -0.367188 3.898438 0 4.828125 0 Z M 4.828125 0 "/></g></g></g><g fill="#ffffff" fill-opacity="1"><g transform="translate(107.03287, 200.446232)"><g><path d="M 0.5 0 L 0.5 -0.125 L 0.875 -0.125 C 1.582031 -0.125 1.9375 -0.4375 1.9375 -1.0625 L 1.9375 -8.28125 C 1.9375 -8.875 1.582031 -9.171875 0.875 -9.171875 L 0.5 -9.171875 L 0.5 -9.296875 L 3.03125 -9.296875 L 8 -1.859375 L 8 -8.234375 C 8 -8.859375 7.644531 -9.171875 6.9375 -9.171875 L 6.5625 -9.171875 L 6.5625 -9.296875 L 9.578125 -9.296875 L 9.578125 -9.171875 L 9.203125 -9.171875 C 8.484375 -9.171875 8.125 -8.859375 8.125 -8.234375 L 8.125 0 L 7.734375 0 L 2.078125 -8.5 L 2.078125 -1.0625 C 2.078125 -0.4375 2.429688 -0.125 3.140625 -0.125 L 3.5 -0.125 L 3.5 0 Z M 0.5 0 "/></g></g></g><g fill="#ffffff" fill-opacity="1"><g transform="translate(121.864796, 200.446232)"><g><path d="M 2.078125 0 L 2.078125 -0.125 L 2.25 -0.125 C 2.96875 -0.125 3.328125 -0.4375 3.328125 -1.0625 L 3.328125 -9.171875 L 2.25 -9.171875 C 1.59375 -9.171875 1.128906 -9.046875 0.859375 -8.796875 C 0.597656 -8.554688 0.453125 -8.109375 0.421875 -7.453125 L 0.390625 -7.03125 L 0.265625 -7.03125 L 0.34375 -9.296875 L 7.65625 -9.296875 L 7.734375 -7.03125 L 7.59375 -7.03125 L 7.578125 -7.453125 C 7.523438 -8.109375 7.367188 -8.554688 7.109375 -8.796875 C 6.847656 -9.046875 6.390625 -9.171875 5.734375 -9.171875 L 4.640625 -9.171875 L 4.640625 -1.0625 C 4.640625 -0.4375 4.992188 -0.125 5.703125 -0.125 L 5.875 -0.125 L 5.875 0 Z M 2.078125 0 "/></g></g></g><g fill="#ffffff" fill-opacity="1"><g transform="translate(134.742025, 200.446232)"><g/></g></g><g fill="#ffffff" fill-opacity="1"><g transform="translate(142.56314, 200.446232)"><g><path d="M 0.5 0 L 0.5 -0.125 L 0.671875 -0.125 C 1.378906 -0.125 1.734375 -0.4375 1.734375 -1.0625 L 1.734375 -8.28125 C 1.734375 -8.875 1.378906 -9.171875 0.671875 -9.171875 L 0.5 -9.171875 L 0.5 -9.296875 L 7.046875 -9.296875 L 7.125 -7.03125 L 7 -7.03125 L 6.96875 -7.453125 C 6.925781 -8.109375 6.773438 -8.554688 6.515625 -8.796875 C 6.253906 -9.046875 5.796875 -9.171875 5.140625 -9.171875 L 3.046875 -9.171875 L 3.046875 -4.9375 L 6.3125 -4.9375 L 6.3125 -4.8125 L 3.046875 -4.8125 L 3.046875 -0.125 L 5.453125 -0.125 C 5.921875 -0.125 6.289062 -0.175781 6.5625 -0.28125 C 6.84375 -0.382812 7.046875 -0.5625 7.171875 -0.8125 C 7.304688 -1.070312 7.390625 -1.414062 7.421875 -1.84375 L 7.4375 -2.28125 L 7.578125 -2.28125 L 7.484375 0 Z M 0.5 0 "/></g></g></g><g fill="#ffffff" fill-opacity="1"><g transform="translate(155.570682, 200.446232)"><g><path d="M 0.5 0 L 0.5 -0.125 L 0.875 -0.125 C 1.582031 -0.125 1.9375 -0.4375 1.9375 -1.0625 L 1.9375 -8.28125 C 1.9375 -8.875 1.582031 -9.171875 0.875 -9.171875 L 0.5 -9.171875 L 0.5 -9.296875 L 3.03125 -9.296875 L 8 -1.859375 L 8 -8.234375 C 8 -8.859375 7.644531 -9.171875 6.9375 -9.171875 L 6.5625 -9.171875 L 6.5625 -9.296875 L 9.578125 -9.296875 L 9.578125 -9.171875 L 9.203125 -9.171875 C 8.484375 -9.171875 8.125 -8.859375 8.125 -8.234375 L 8.125 0 L 7.734375 0 L 2.078125 -8.5 L 2.078125 -1.0625 C 2.078125 -0.4375 2.429688 -0.125 3.140625 -0.125 L 3.5 -0.125 L 3.5 0 Z M 0.5 0 "/></g></g></g><g fill="#ffffff" fill-opacity="1"><g transform="translate(170.402608, 200.446232)"><g><path d="M 0.5 0 L 0.5 -0.125 L 0.671875 -0.125 C 1.378906 -0.125 1.734375 -0.4375 1.734375 -1.0625 L 1.734375 -8.28125 C 1.734375 -8.875 1.378906 -9.171875 0.671875 -9.171875 L 0.5 -9.171875 L 0.5 -9.296875 L 4.484375 -9.296875 C 5.816406 -9.296875 6.859375 -8.890625 7.609375 -8.078125 C 8.359375 -7.273438 8.734375 -6.140625 8.734375 -4.671875 C 8.734375 -3.710938 8.570312 -2.882812 8.25 -2.1875 C 7.9375 -1.488281 7.460938 -0.945312 6.828125 -0.5625 C 6.203125 -0.1875 5.421875 0 4.484375 0 Z M 3.046875 -0.125 L 4.1875 -0.125 C 5.269531 -0.125 6.054688 -0.484375 6.546875 -1.203125 C 7.035156 -1.921875 7.28125 -3.078125 7.28125 -4.671875 C 7.28125 -6.242188 7.035156 -7.382812 6.546875 -8.09375 C 6.054688 -8.8125 5.273438 -9.171875 4.203125 -9.171875 L 3.046875 -9.171875 Z M 3.046875 -0.125 "/></g></g></g><g fill="#ffffff" fill-opacity="1"><g transform="translate(184.765411, 200.446232)"><g/></g></g><g fill="#ffffff" fill-opacity="1"><g transform="translate(192.586521, 200.446232)"><g><path d="M 0.5 0 L 0.5 -0.125 L 0.671875 -0.125 C 1.378906 -0.125 1.734375 -0.4375 1.734375 -1.0625 L 1.734375 -8.28125 C 1.734375 -8.875 1.378906 -9.171875 0.671875 -9.171875 L 0.5 -9.171875 L 0.5 -9.296875 L 4.484375 -9.296875 C 5.816406 -9.296875 6.859375 -8.890625 7.609375 -8.078125 C 8.359375 -7.273438 8.734375 -6.140625 8.734375 -4.671875 C 8.734375 -3.710938 8.570312 -2.882812 8.25 -2.1875 C 7.9375 -1.488281 7.460938 -0.945312 6.828125 -0.5625 C 6.203125 -0.1875 5.421875 0 4.484375 0 Z M 3.046875 -0.125 L 4.1875 -0.125 C 5.269531 -0.125 6.054688 -0.484375 6.546875 -1.203125 C 7.035156 -1.921875 7.28125 -3.078125 7.28125 -4.671875 C 7.28125 -6.242188 7.035156 -7.382812 6.546875 -8.09375 C 6.054688 -8.8125 5.273438 -9.171875 4.203125 -9.171875 L 3.046875 -9.171875 Z M 3.046875 -0.125 "/></g></g></g><g fill="#ffffff" fill-opacity="1"><g transform="translate(206.949324, 200.446232)"><g><path d="M 0.5 0 L 0.5 -0.125 L 0.671875 -0.125 C 1.378906 -0.125 1.734375 -0.4375 1.734375 -1.0625 L 1.734375 -8.28125 C 1.734375 -8.875 1.378906 -9.171875 0.671875 -9.171875 L 0.5 -9.171875 L 0.5 -9.296875 L 7.046875 -9.296875 L 7.125 -7.03125 L 7 -7.03125 L 6.96875 -7.453125 C 6.925781 -8.109375 6.773438 -8.554688 6.515625 -8.796875 C 6.253906 -9.046875 5.796875 -9.171875 5.140625 -9.171875 L 3.046875 -9.171875 L 3.046875 -4.9375 L 6.3125 -4.9375 L 6.3125 -4.8125 L 3.046875 -4.8125 L 3.046875 -0.125 L 5.453125 -0.125 C 5.921875 -0.125 6.289062 -0.175781 6.5625 -0.28125 C 6.84375 -0.382812 7.046875 -0.5625 7.171875 -0.8125 C 7.304688 -1.070312 7.390625 -1.414062 7.421875 -1.84375 L 7.4375 -2.28125 L 7.578125 -2.28125 L 7.484375 0 Z M 0.5 0 "/></g></g></g><g fill="#ffffff" fill-opacity="1"><g transform="translate(219.956861, 200.446232)"><g><path d="M 4.09375 0 L 1.109375 -8.46875 C 1.015625 -8.738281 0.898438 -8.921875 0.765625 -9.015625 C 0.640625 -9.117188 0.441406 -9.171875 0.171875 -9.171875 L 0 -9.171875 L 0 -9.296875 L 3.578125 -9.296875 L 3.578125 -9.171875 L 3.265625 -9.171875 C 2.992188 -9.171875 2.789062 -9.132812 2.65625 -9.0625 C 2.53125 -8.988281 2.46875 -8.859375 2.46875 -8.671875 C 2.46875 -8.503906 2.507812 -8.300781 2.59375 -8.0625 L 4.203125 -3.421875 C 4.515625 -2.554688 4.75 -1.796875 4.90625 -1.140625 C 5.007812 -1.472656 5.125 -1.84375 5.25 -2.25 C 5.382812 -2.65625 5.507812 -3.046875 5.625 -3.421875 L 7.109375 -7.96875 C 7.160156 -8.101562 7.195312 -8.222656 7.21875 -8.328125 C 7.25 -8.429688 7.265625 -8.523438 7.265625 -8.609375 C 7.265625 -8.816406 7.191406 -8.960938 7.046875 -9.046875 C 6.898438 -9.128906 6.679688 -9.171875 6.390625 -9.171875 L 5.609375 -9.171875 L 5.609375 -9.296875 L 8.796875 -9.296875 L 8.796875 -9.171875 L 8.328125 -9.171875 C 8.078125 -9.171875 7.878906 -9.097656 7.734375 -8.953125 C 7.597656 -8.804688 7.46875 -8.546875 7.34375 -8.171875 L 4.65625 0 Z M 4.09375 0 "/></g></g></g><g fill="#ffffff" fill-opacity="1"><g transform="translate(233.642026, 200.446232)"><g><path d="M 0.5 0 L 0.5 -0.125 L 0.671875 -0.125 C 1.378906 -0.125 1.734375 -0.4375 1.734375 -1.0625 L 1.734375 -8.28125 C 1.734375 -8.875 1.378906 -9.171875 0.671875 -9.171875 L 0.5 -9.171875 L 0.5 -9.296875 L 7.046875 -9.296875 L 7.125 -7.03125 L 7 -7.03125 L 6.96875 -7.453125 C 6.925781 -8.109375 6.773438 -8.554688 6.515625 -8.796875 C 6.253906 -9.046875 5.796875 -9.171875 5.140625 -9.171875 L 3.046875 -9.171875 L 3.046875 -4.9375 L 6.3125 -4.9375 L 6.3125 -4.8125 L 3.046875 -4.8125 L 3.046875 -0.125 L 5.453125 -0.125 C 5.921875 -0.125 6.289062 -0.175781 6.5625 -0.28125 C 6.84375 -0.382812 7.046875 -0.5625 7.171875 -0.8125 C 7.304688 -1.070312 7.390625 -1.414062 7.421875 -1.84375 L 7.4375 -2.28125 L 7.578125 -2.28125 L 7.484375 0 Z M 0.5 0 "/></g></g></g><g fill="#ffffff" fill-opacity="1"><g transform="translate(246.649563, 200.446232)"><g><path d="M 0.5 0 L 0.5 -0.125 L 0.671875 -0.125 C 1.378906 -0.125 1.734375 -0.4375 1.734375 -1.0625 L 1.734375 -8.28125 C 1.734375 -8.875 1.378906 -9.171875 0.671875 -9.171875 L 0.5 -9.171875 L 0.5 -9.296875 L 4.28125 -9.296875 L 4.28125 -9.171875 L 4.125 -9.171875 C 3.40625 -9.171875 3.046875 -8.859375 3.046875 -8.234375 L 3.046875 -0.125 L 5.453125 -0.125 C 5.921875 -0.125 6.289062 -0.191406 6.5625 -0.328125 C 6.832031 -0.460938 7.03125 -0.695312 7.15625 -1.03125 C 7.289062 -1.363281 7.378906 -1.8125 7.421875 -2.375 L 7.4375 -2.796875 L 7.578125 -2.796875 L 7.484375 0 Z M 0.5 0 "/></g></g></g><g fill="#ffffff" fill-opacity="1"><g transform="translate(259.6571, 200.446232)"><g><path d="M 4.828125 0.125 C 3.910156 0.125 3.144531 -0.0703125 2.53125 -0.46875 C 1.925781 -0.863281 1.472656 -1.421875 1.171875 -2.140625 C 0.878906 -2.867188 0.734375 -3.710938 0.734375 -4.671875 C 0.734375 -5.640625 0.878906 -6.476562 1.171875 -7.1875 C 1.472656 -7.90625 1.929688 -8.460938 2.546875 -8.859375 C 3.160156 -9.253906 3.925781 -9.453125 4.84375 -9.453125 C 5.71875 -9.453125 6.457031 -9.253906 7.0625 -8.859375 C 7.664062 -8.460938 8.125 -7.90625 8.4375 -7.1875 C 8.757812 -6.46875 8.921875 -5.628906 8.921875 -4.671875 C 8.921875 -3.703125 8.757812 -2.859375 8.4375 -2.140625 C 8.125 -1.421875 7.664062 -0.863281 7.0625 -0.46875 C 6.457031 -0.0703125 5.710938 0.125 4.828125 0.125 Z M 4.828125 0 C 5.765625 0 6.441406 -0.367188 6.859375 -1.109375 C 7.273438 -1.847656 7.484375 -3.035156 7.484375 -4.671875 C 7.484375 -6.296875 7.273438 -7.472656 6.859375 -8.203125 C 6.441406 -8.941406 5.769531 -9.3125 4.84375 -9.3125 C 3.914062 -9.3125 3.238281 -8.941406 2.8125 -8.203125 C 2.382812 -7.472656 2.171875 -6.296875 2.171875 -4.671875 C 2.171875 -3.035156 2.378906 -1.847656 2.796875 -1.109375 C 3.222656 -0.367188 3.898438 0 4.828125 0 Z M 4.828125 0 "/></g></g></g><g fill="#ffffff" fill-opacity="1"><g transform="translate(274.215357, 200.446232)"><g><path d="M 0.5 0 L 0.5 -0.125 L 0.671875 -0.125 C 1.378906 -0.125 1.734375 -0.4375 1.734375 -1.0625 L 1.734375 -8.28125 C 1.734375 -8.875 1.378906 -9.171875 0.671875 -9.171875 L 0.5 -9.171875 L 0.5 -9.296875 L 4.15625 -9.296875 C 5.25 -9.296875 6.054688 -9.050781 6.578125 -8.5625 C 7.097656 -8.082031 7.359375 -7.421875 7.359375 -6.578125 C 7.359375 -6.066406 7.25 -5.582031 7.03125 -5.125 C 6.8125 -4.675781 6.441406 -4.3125 5.921875 -4.03125 C 5.410156 -3.757812 4.726562 -3.625 3.875 -3.625 L 3.046875 -3.625 L 3.046875 -1.0625 C 3.046875 -0.4375 3.40625 -0.125 4.125 -0.125 L 4.28125 -0.125 L 4.28125 0 Z M 3.046875 -3.75 L 3.734375 -3.75 C 4.523438 -3.75 5.09375 -3.960938 5.4375 -4.390625 C 5.78125 -4.816406 5.953125 -5.53125 5.953125 -6.53125 C 5.953125 -7.476562 5.796875 -8.15625 5.484375 -8.5625 C 5.179688 -8.96875 4.664062 -9.171875 3.9375 -9.171875 L 3.046875 -9.171875 Z M 3.046875 -3.75 "/></g></g></g><g fill="#ffffff" fill-opacity="1"><g transform="translate(286.975313, 200.446232)"><g><path d="M 0.5 0 L 0.5 -0.125 L 0.671875 -0.125 C 1.378906 -0.125 1.734375 -0.4375 1.734375 -1.0625 L 1.734375 -8.28125 C 1.734375 -8.875 1.378906 -9.171875 0.671875 -9.171875 L 0.5 -9.171875 L 0.5 -9.296875 L 7.046875 -9.296875 L 7.125 -7.03125 L 7 -7.03125 L 6.96875 -7.453125 C 6.925781 -8.109375 6.773438 -8.554688 6.515625 -8.796875 C 6.253906 -9.046875 5.796875 -9.171875 5.140625 -9.171875 L 3.046875 -9.171875 L 3.046875 -4.9375 L 6.3125 -4.9375 L 6.3125 -4.8125 L 3.046875 -4.8125 L 3.046875 -0.125 L 5.453125 -0.125 C 5.921875 -0.125 6.289062 -0.175781 6.5625 -0.28125 C 6.84375 -0.382812 7.046875 -0.5625 7.171875 -0.8125 C 7.304688 -1.070312 7.390625 -1.414062 7.421875 -1.84375 L 7.4375 -2.28125 L 7.578125 -2.28125 L 7.484375 0 Z M 0.5 0 "/></g></g></g><g fill="#ffffff" fill-opacity="1"><g transform="translate(299.98285, 200.446232)"><g><path d="M 0.5 0 L 0.5 -0.125 L 0.671875 -0.125 C 1.378906 -0.125 1.734375 -0.4375 1.734375 -1.0625 L 1.734375 -8.28125 C 1.734375 -8.875 1.378906 -9.171875 0.671875 -9.171875 L 0.5 -9.171875 L 0.5 -9.296875 L 4 -9.296875 C 5.125 -9.296875 5.960938 -9.085938 6.515625 -8.671875 C 7.066406 -8.253906 7.34375 -7.65625 7.34375 -6.875 C 7.34375 -6.351562 7.238281 -5.929688 7.03125 -5.609375 C 6.832031 -5.296875 6.570312 -5.046875 6.25 -4.859375 C 5.9375 -4.679688 5.613281 -4.539062 5.28125 -4.4375 L 7.109375 -1.578125 C 7.472656 -1.023438 7.757812 -0.644531 7.96875 -0.4375 C 8.175781 -0.226562 8.382812 -0.125 8.59375 -0.125 L 8.625 -0.125 L 8.625 0 L 8.4375 0 C 8.03125 0 7.691406 -0.015625 7.421875 -0.046875 C 7.160156 -0.078125 6.941406 -0.128906 6.765625 -0.203125 C 6.597656 -0.285156 6.445312 -0.398438 6.3125 -0.546875 C 6.175781 -0.703125 6.03125 -0.898438 5.875 -1.140625 L 3.875 -4.34375 L 3.046875 -4.34375 L 3.046875 -1.0625 C 3.046875 -0.4375 3.40625 -0.125 4.125 -0.125 L 4.28125 -0.125 L 4.28125 0 Z M 3.046875 -4.46875 L 3.96875 -4.46875 C 4.6875 -4.46875 5.195312 -4.644531 5.5 -5 C 5.800781 -5.351562 5.953125 -5.945312 5.953125 -6.78125 C 5.953125 -7.632812 5.796875 -8.242188 5.484375 -8.609375 C 5.171875 -8.984375 4.65625 -9.171875 3.9375 -9.171875 L 3.046875 -9.171875 Z M 3.046875 -4.46875 "/></g></g></g></svg>